<svg xmlns="http://www.w3.org/2000/svg" viewBox="0 0 64 64" role="img" aria-label="Odoo Factura IA">
  <defs>
    <linearGradient id="bg" x1="0" y1="0" x2="1" y2="1">
      <stop offset="0" stop-color="#6A2BF5"/>
      <stop offset="1" stop-color="#3A1D8A"/>
    </linearGradient>
  </defs>
  <rect width="64" height="64" rx="15" fill="url(#bg)"/>
  <path d="M18 12h18l10 10v30a3 3 0 0 1-3 3H18a3 3 0 0 1-3-3V15a3 3 0 0 1 3-3z" fill="#ffffff"/>
  <path d="M36 12v10h10z" fill="#CDBBFF"/>
  <line x1="22" y1="31" x2="39" y2="31" stroke="#5216E7" stroke-width="3" stroke-linecap="round"/>
  <line x1="22" y1="39" x2="35" y2="39" stroke="#5216E7" stroke-width="3" stroke-linecap="round"/>
  <path d="M44 33.5l2.15 5.1 5.1 2.15-5.1 2.15L44 48l-2.15-5.1-5.1-2.15 5.1-2.15z" fill="#FFDD00"/>
</svg>
